<svg version="1.1" id="Layer_1" xmlns="http://www.w3.org/2000/svg" xmlns:xlink="http://www.w3.org/1999/xlink" x="0px" y="0px"
	 width="100%" viewBox="0 0 144 144" enable-background="new 0 0 144 144" xml:space="preserve">
<path fill="#FFFEFE" opacity="1.000000" stroke="none" 
	d="
M89.000000,145.000000 
	C59.358669,145.000000 30.217337,145.000000 1.038002,145.000000 
	C1.038002,97.067055 1.038002,49.134071 1.038002,1.100543 
	C48.891087,1.100543 96.782455,1.100543 144.836914,1.100543 
	C144.836914,48.999550 144.836914,96.999725 144.836914,145.000000 
	C126.467781,145.000000 107.983894,145.000000 89.000000,145.000000 
M108.796227,112.721138 
	C111.038261,114.678101 113.280304,116.635071 115.522339,118.592033 
	C115.981247,118.286201 116.440155,117.980377 116.899063,117.674553 
	C116.899063,115.914635 116.898529,114.154724 116.899147,112.394814 
	C116.906242,92.068748 116.898880,71.742668 116.927414,51.416634 
	C116.940140,42.350624 120.080475,35.160610 129.013550,31.438633 
	C130.020782,31.018969 130.808960,30.073547 132.829422,28.480305 
	C120.644875,28.480305 110.073891,28.480305 99.502907,28.480305 
	C99.090584,29.054222 98.678253,29.628139 98.265923,30.202057 
	C99.198570,30.514448 100.141571,30.799162 101.062279,31.143473 
	C111.275757,34.962936 114.105537,43.099758 114.024132,53.061440 
	C113.932922,64.223373 114.005966,75.386658 114.007378,86.549355 
	C114.007721,89.269119 114.007431,91.988892 114.007431,95.678307 
	C111.891937,93.761063 110.658119,92.692818 109.479240,91.567039 
	C88.996140,72.006371 68.537140,52.420387 48.013123,32.902767 
	C46.115421,31.098116 43.886215,28.487566 41.686550,28.357670 
	C32.842155,27.835379 23.948841,28.141518 13.959006,28.141518 
	C15.285587,29.611206 15.698348,30.516987 16.247381,30.608919 
	C23.508928,31.824808 28.155308,36.978172 33.021481,41.735950 
	C33.978474,42.671627 34.849468,44.240154 34.855518,45.521084 
	C34.934948,62.346836 35.027355,79.176407 34.734978,95.998383 
	C34.590462,104.313126 30.811096,110.667984 22.730949,113.961105 
	C21.699537,114.381462 20.884966,115.333862 18.906925,116.859879 
	C31.025965,116.859879 41.629772,116.859879 52.233578,116.859879 
	C51.486504,115.007561 50.404758,114.168587 49.190540,113.626137 
	C41.850574,110.346970 38.153404,104.469200 38.034859,96.694183 
	C37.786045,80.375175 37.937225,64.050041 37.956398,47.727455 
	C37.956635,47.527206 38.383228,47.327457 38.890129,46.882030 
	C62.010880,68.654617 85.147774,90.442413 108.796227,112.721138 
z"/>
<path fill="#D62434" opacity="1.000000" stroke="none" 
	d="
M108.540443,112.475670 
	C85.147774,90.442413 62.010880,68.654617 38.890129,46.882030 
	C38.383228,47.327457 37.956635,47.527206 37.956398,47.727455 
	C37.937225,64.050041 37.786045,80.375175 38.034859,96.694183 
	C38.153404,104.469200 41.850574,110.346970 49.190540,113.626137 
	C50.404758,114.168587 51.486504,115.007561 52.233578,116.859879 
	C41.629772,116.859879 31.025965,116.859879 18.906925,116.859879 
	C20.884966,115.333862 21.699537,114.381462 22.730949,113.961105 
	C30.811096,110.667984 34.590462,104.313126 34.734978,95.998383 
	C35.027355,79.176407 34.934948,62.346836 34.855518,45.521084 
	C34.849468,44.240154 33.978474,42.671627 33.021481,41.735950 
	C28.155308,36.978172 23.508928,31.824808 16.247381,30.608919 
	C15.698348,30.516987 15.285587,29.611206 13.959006,28.141518 
	C23.948841,28.141518 32.842155,27.835379 41.686550,28.357670 
	C43.886215,28.487566 46.115421,31.098116 48.013123,32.902767 
	C68.537140,52.420387 88.996140,72.006371 109.479240,91.567039 
	C110.658119,92.692818 111.891937,93.761063 114.007431,95.678307 
	C114.007431,91.988892 114.007721,89.269119 114.007378,86.549355 
	C114.005966,75.386658 113.932922,64.223373 114.024132,53.061440 
	C114.105537,43.099758 111.275757,34.962936 101.062279,31.143473 
	C100.141571,30.799162 99.198570,30.514448 98.265923,30.202057 
	C98.678253,29.628139 99.090584,29.054222 99.502907,28.480305 
	C110.073891,28.480305 120.644875,28.480305 132.829422,28.480305 
	C130.808960,30.073547 130.020782,31.018969 129.013550,31.438633 
	C120.080475,35.160610 116.940140,42.350624 116.927414,51.416634 
	C116.898880,71.742668 116.906242,92.068748 116.899147,112.394814 
	C116.898529,114.154724 116.899063,115.914635 116.899063,117.674553 
	C116.440155,117.980377 115.981247,118.286201 115.522339,118.592033 
	C113.280304,116.635071 111.038261,114.678101 108.540443,112.475670 
z"/>
</svg>